<svg width="20" height="20" viewBox="0 0 20 20" fill="none" xmlns="http://www.w3.org/2000/svg">
<path d="M11.667 9.16667H12.5003C13.4208 9.16667 14.167 9.91286 14.167 10.8333V13.3333C14.167 14.0237 14.7266 14.5833 15.417 14.5833C16.1073 14.5833 16.667 14.0237 16.667 13.3333V7.5L14.167 5" stroke="url(#paint0_linear_8427_1600)" stroke-width="1.75" stroke-linecap="round" stroke-linejoin="round"/>
<path d="M3.33301 16.6673V5.00065C3.33301 4.08018 4.0792 3.33398 4.99967 3.33398H9.99967C10.9201 3.33398 11.6663 4.08018 11.6663 5.00065V16.6673" stroke="url(#paint1_linear_8427_1600)" stroke-width="1.75" stroke-linecap="round" stroke-linejoin="round"/>
<path d="M2.5 16.6667H12.5" stroke="url(#paint2_linear_8427_1600)" stroke-width="1.75" stroke-linecap="round" stroke-linejoin="round"/>
<path d="M15 5.83398V6.66732C15 7.12755 15.3731 7.50065 15.8333 7.50065H16.6667" stroke="url(#paint3_linear_8427_1600)" stroke-width="1.75" stroke-linecap="round" stroke-linejoin="round"/>
<path d="M3.33301 9.16667H11.6663" stroke="url(#paint4_linear_8427_1600)" stroke-width="1.75" stroke-linecap="round" stroke-linejoin="round"/>
<defs>
<linearGradient id="paint0_linear_8427_1600" x1="14.167" y1="5" x2="14.167" y2="14.5833" gradientUnits="userSpaceOnUse">
<stop stop-color="#E0D379"/>
<stop offset="0.5" stop-color="#BC9E43"/>
<stop offset="1" stop-color="#9A762A"/>
</linearGradient>
<linearGradient id="paint1_linear_8427_1600" x1="7.49967" y1="3.33398" x2="7.49967" y2="16.6673" gradientUnits="userSpaceOnUse">
<stop stop-color="#E0D379"/>
<stop offset="0.5" stop-color="#BC9E43"/>
<stop offset="1" stop-color="#9A762A"/>
</linearGradient>
<linearGradient id="paint2_linear_8427_1600" x1="7.5" y1="16.25" x2="7.5" y2="17.0833" gradientUnits="userSpaceOnUse">
<stop stop-color="#E0D379"/>
<stop offset="0.5" stop-color="#BC9E43"/>
<stop offset="1" stop-color="#9A762A"/>
</linearGradient>
<linearGradient id="paint3_linear_8427_1600" x1="15.8333" y1="5.83398" x2="15.8333" y2="7.50065" gradientUnits="userSpaceOnUse">
<stop stop-color="#E0D379"/>
<stop offset="0.5" stop-color="#BC9E43"/>
<stop offset="1" stop-color="#9A762A"/>
</linearGradient>
<linearGradient id="paint4_linear_8427_1600" x1="7.49967" y1="8.75" x2="7.49967" y2="9.58333" gradientUnits="userSpaceOnUse">
<stop stop-color="#E0D379"/>
<stop offset="0.5" stop-color="#BC9E43"/>
<stop offset="1" stop-color="#9A762A"/>
</linearGradient>
</defs>
</svg>
