<svg width="20" height="20" viewBox="0 0 20 20" fill="none" xmlns="http://www.w3.org/2000/svg">
<path fill-rule="evenodd" clip-rule="evenodd" d="M2.31696 9.37484H3.33366C3.67884 9.37484 3.95866 9.65466 3.95866 9.99984C3.95866 10.345 3.67884 10.6248 3.33366 10.6248H2.31696C2.45007 12.2838 3.10843 13.7945 4.12561 14.9907L4.97505 14.1412C5.21913 13.8972 5.61486 13.8972 5.85893 14.1412C6.10301 14.3853 6.10301 14.781 5.85893 15.0251L5.00949 15.8746C6.35428 17.0181 8.09672 17.7082 10.0003 17.7082C11.9039 17.7082 13.6464 17.0181 14.9912 15.8746L14.1417 15.0251C13.8976 14.781 13.8976 14.3853 14.1417 14.1412C14.3858 13.8972 14.7815 13.8972 15.0256 14.1412L15.875 14.9907C16.8922 13.7945 17.5506 12.2838 17.6837 10.6248H16.6668C16.3216 10.6248 16.0418 10.345 16.0418 9.99984C16.0418 9.65466 16.3216 9.37484 16.6668 9.37484H17.6837C17.5506 7.7159 16.8922 6.20515 15.875 5.009L15.0256 5.85845C14.7815 6.10252 14.3858 6.10252 14.1417 5.85845C13.8976 5.61437 13.8976 5.21864 14.1417 4.97456L14.9912 4.12512C13.795 3.10794 12.2843 2.44959 10.6253 2.31648V3.33335C10.6253 3.67853 10.3455 3.95835 10.0003 3.95835C9.65515 3.95835 9.37533 3.67853 9.37533 3.33335V2.31648C7.71639 2.44959 6.20564 3.10794 5.00949 4.12512L5.85893 4.97456C6.10301 5.21864 6.10301 5.61437 5.85893 5.85845C5.61486 6.10252 5.21913 6.10252 4.97505 5.85845L4.12561 5.009C3.10843 6.20515 2.45007 7.7159 2.31696 9.37484ZM1.04199 9.99984C1.04199 5.05229 5.05277 1.0415 10.0003 1.0415C14.9479 1.0415 18.9587 5.05229 18.9587 9.99984C18.9587 14.9474 14.9479 18.9582 10.0003 18.9582C5.05277 18.9582 1.04199 14.9474 1.04199 9.99984ZM11.5283 8.87612C10.7961 8.14388 9.60887 8.14388 8.87663 8.87611C8.1444 9.60835 8.1444 10.7955 8.87663 11.5278C8.9726 11.6237 9.16466 11.7432 9.47487 11.8648C9.77433 11.9823 10.1359 12.0835 10.5241 12.1689C11.1575 12.3083 11.5415 12.3897 11.8286 12.3947C12.0628 12.3988 12.1582 12.3513 12.255 12.2545C12.3519 12.1576 12.3993 12.0623 12.3953 11.828C12.3902 11.5409 12.3088 11.157 12.1694 10.5236C12.084 10.1354 11.9828 9.77381 11.8654 9.47435C11.7437 9.16415 11.6242 8.97208 11.5283 8.87612ZM7.99275 7.99223C9.21314 6.77184 11.1918 6.77184 12.4122 7.99223C12.6876 8.26764 12.8835 8.64673 13.0291 9.01803C13.1789 9.40007 13.2968 9.83037 13.3902 10.255C13.3942 10.2733 13.3983 10.2917 13.4023 10.3099C13.5257 10.8702 13.6376 11.3786 13.6451 11.8062C13.6537 12.3007 13.526 12.7512 13.1389 13.1384C12.7517 13.5255 12.3012 13.6532 11.8067 13.6445C11.3791 13.6371 10.8707 13.5251 10.3104 13.4018C10.2922 13.3978 10.2739 13.3937 10.2555 13.3897C9.83088 13.2963 9.40059 13.1784 9.01854 13.0286C8.64725 12.883 8.26816 12.6871 7.99275 12.4116C6.77236 11.1913 6.77236 9.21262 7.99275 7.99223Z" fill="url(#paint0_linear_8427_1584)"/>
<defs>
<linearGradient id="paint0_linear_8427_1584" x1="10.0003" y1="1.0415" x2="10.0003" y2="18.9582" gradientUnits="userSpaceOnUse">
<stop stop-color="#E0D379"/>
<stop offset="0.5" stop-color="#BC9E43"/>
<stop offset="1" stop-color="#9A762A"/>
</linearGradient>
</defs>
</svg>
