<svg width="20" height="20" viewBox="0 0 20 20" fill="none" xmlns="http://www.w3.org/2000/svg">
<g clip-path="url(#clip0_8427_1580)">
<path d="M10.0003 1.66602V3.74935M10.0003 1.66602C5.39795 1.66602 1.66699 5.39698 1.66699 9.99935M10.0003 1.66602C14.6027 1.66602 18.3337 5.39698 18.3337 9.99935M10.0003 16.2493V18.3327M10.0003 18.3327C14.6027 18.3327 18.3337 14.6017 18.3337 9.99935M10.0003 18.3327C5.39795 18.3327 1.66699 14.6017 1.66699 9.99935M3.75033 9.99935H1.66699M18.3337 9.99935H16.2503M15.899 15.898L14.4209 14.4199M4.10168 15.898L5.58129 14.4184M4.10168 4.16602L5.54873 5.61306M15.899 4.16602L11.2502 8.74935M11.667 9.99935C11.667 10.9198 10.9208 11.666 10.0003 11.666C9.07985 11.666 8.33366 10.9198 8.33366 9.99935C8.33366 9.07887 9.07985 8.33268 10.0003 8.33268C10.9208 8.33268 11.667 9.07887 11.667 9.99935Z" stroke="url(#paint0_linear_8427_1580)" stroke-width="1.5" stroke-linecap="round" stroke-linejoin="round"/>
</g>
<defs>
<linearGradient id="paint0_linear_8427_1580" x1="10.0003" y1="1.66602" x2="10.0003" y2="18.3327" gradientUnits="userSpaceOnUse">
<stop stop-color="#E0D379"/>
<stop offset="0.5" stop-color="#BC9E43"/>
<stop offset="1" stop-color="#9A762A"/>
</linearGradient>
<clipPath id="clip0_8427_1580">
<rect width="20" height="20" fill="white"/>
</clipPath>
</defs>
</svg>
