<svg width="71" height="36" viewBox="0 0 71 36" fill="none" xmlns="http://www.w3.org/2000/svg">
<g clip-path="url(#clip0_8388_127)">
<path d="M35.16 36C54.5688 36 70.32 27.9148 70.32 18C70.32 8.08525 54.6278 0 35.16 0C15.7512 0 0 8.08525 0 18C0 27.9148 15.6922 36 35.16 36ZM41.7673 27.1475C41.1773 28.5049 40.1744 31.3377 37.8737 32.577C37.1658 32.9311 36.3399 33.1082 35.514 33.1082C35.337 33.1082 35.219 33.1082 35.16 33.1082C29.2017 33.1672 23.3024 32.341 17.58 30.6885L17.403 30.6295C16.9311 30.4525 16.6951 30.2754 16.6951 29.9803C16.6951 29.8623 16.7541 29.7443 16.7541 29.6852C16.8131 29.5672 16.8721 29.5082 16.9311 29.4492L17.226 29.1541C18.3469 28.1508 21.8865 25.6131 28.5528 23.1344C31.2665 22.0131 34.0391 21.1869 36.8708 20.4787C38.6996 20.0656 45.3069 19.0623 41.7673 27.1475ZM59.5832 9.02951C59.6422 8.91148 59.7012 8.79344 59.8192 8.73443C59.9372 8.67541 60.0552 8.61639 60.1732 8.61639C60.4091 8.61639 60.7041 8.67541 60.8811 8.85246C65.0106 11.3902 67.4883 14.577 67.4883 18C67.4883 24.1967 59.5242 29.5672 48.0795 31.8689C47.3716 32.0459 46.8407 31.9869 46.7227 31.8689C46.5457 31.7508 46.5457 31.5738 46.7227 31.3377C46.7817 31.1607 46.8997 31.0426 47.0177 30.9246C53.212 23.6066 57.9904 12.8066 59.2883 9.67869C59.4063 9.38361 59.4653 9.14754 59.5832 9.02951ZM28.6707 8.79344C29.2607 7.43607 30.2636 4.54426 32.5643 3.36393C33.2722 3.00984 34.0981 2.83279 34.924 2.83279C35.101 2.83279 35.219 2.83279 35.278 2.83279C41.2363 2.77377 47.1357 3.6 52.858 5.25246L53.035 5.31148C53.5069 5.48852 53.7429 5.66557 53.7429 5.96066C53.7429 6.07869 53.6839 6.19672 53.6839 6.25574C53.6249 6.37377 53.5659 6.43279 53.5069 6.4918L53.094 6.8459C51.9731 7.84918 48.4925 10.3869 41.8263 12.9246C39.1126 14.0459 36.3399 14.9311 33.5082 15.5803C31.7974 15.9344 25.1901 16.9377 28.6707 8.79344ZM22.2995 4.13115C23.0664 4.01311 23.5383 4.01311 23.7153 4.13115C23.7743 4.19016 23.7743 4.3082 23.7743 4.42623C23.7743 4.54426 23.7153 4.60328 23.7153 4.72131C23.5973 4.89836 23.5383 5.01639 23.4203 5.13443C17.1671 12.4525 12.3886 23.2525 11.0907 26.3803C10.9728 26.6164 10.9138 26.7934 10.7958 26.9705C10.7368 27.0885 10.6778 27.2066 10.5598 27.2656C10.4418 27.3246 10.3238 27.3836 10.2058 27.3836C9.96987 27.3836 9.6749 27.3246 9.49792 27.1475C5.36839 24.6098 2.89067 21.423 2.89067 18C2.89067 11.8033 10.8548 6.4918 22.2995 4.13115Z" fill="white"/>
</g>
<defs>
<clipPath id="clip0_8388_127">
<rect width="70.32" height="36" fill="white"/>
</clipPath>
</defs>
</svg>
