<svg width="93" height="32" viewBox="0 0 93 32" fill="none" xmlns="http://www.w3.org/2000/svg">
<path d="M15.9986 1.88281C12.2972 2.00626 8.79252 3.57923 6.24006 6.26264C3.6876 8.94605 2.29179 12.525 2.35353 16.2279C2.41526 19.9309 3.92959 23.4613 6.57008 26.0582C9.21056 28.655 12.7657 30.1103 16.4692 30.1103C20.1727 30.1103 23.7278 28.655 26.3683 26.0582C29.0088 23.4613 30.5232 19.9309 30.5849 16.2279C30.6466 12.525 29.2508 8.94605 26.6984 6.26264C24.1459 3.57923 20.6412 2.00626 16.9398 1.88281H15.9986ZM35.7633 1.88281C32.0619 2.00626 28.5572 3.57923 26.0048 6.26264C23.4523 8.94605 22.0565 12.525 22.1182 16.2279C22.18 19.9309 23.6943 23.4613 26.3348 26.0582C28.9753 28.655 32.5304 30.1103 36.2339 30.1103C39.9374 30.1103 43.4925 28.655 46.133 26.0582C48.7735 23.4613 50.2879 19.9309 50.3496 16.2279C50.4113 12.525 49.0155 8.94605 46.4631 6.26264C43.9106 3.57923 40.4059 2.00626 36.7045 1.88281H35.7633ZM55.528 1.88281C51.8266 2.00626 48.3219 3.57923 45.7695 6.26264C43.217 8.94605 41.8212 12.525 41.8829 16.2279C41.9447 19.9309 43.459 23.4613 46.0995 26.0582C48.74 28.655 52.2951 30.1103 55.9986 30.1103C59.7021 30.1103 63.2572 28.655 65.8977 26.0582C68.5382 23.4613 70.0525 19.9309 70.1143 16.2279C70.176 12.525 68.7802 8.94605 66.2277 6.26264C63.6753 3.57923 60.1706 2.00626 56.4692 1.88281H55.528ZM75.2927 1.88281C71.5913 2.00626 68.0866 3.57923 65.5342 6.26264C62.9817 8.94605 61.5859 12.525 61.6476 16.2279C61.7094 19.9309 63.2237 23.4613 65.8642 26.0582C68.5047 28.655 72.0598 30.1103 75.7633 30.1103C79.4668 30.1103 83.0219 28.655 85.6624 26.0582C88.3029 23.4613 89.8172 19.9309 89.879 16.2279C89.9407 12.525 88.5449 8.94605 85.9924 6.26264C83.44 3.57923 79.9353 2.00626 76.2339 1.88281H75.2927Z" stroke="white" stroke-width="3"/>
</svg>
