<svg width="51" height="42" viewBox="0 0 51 42" fill="none" xmlns="http://www.w3.org/2000/svg">
<g clip-path="url(#clip0_8388_187)">
<path d="M7.10922 14.6642C9.71751 7.10219 16.9286 1.9927 25.0604 1.9927C33.1921 1.9927 40.4032 7.10219 43.0115 14.6642V14.7153H48.7395V14.0511L46.3869 13.7956C44.9038 13.6423 44.5969 12.9781 44.1878 12.1606L44.0855 11.9562C40.6589 4.70073 33.1921 0 25.0604 0C16.9286 0 9.46179 4.70073 5.98408 11.9562L5.88179 12.1606C5.52379 12.9781 5.16579 13.6423 3.73379 13.7956L1.33008 14.0511V14.7153H7.05808L7.10922 14.6642Z" fill="white"/>
<path d="M43.0626 27.2852V27.3363C40.4032 34.8983 33.1921 40.0078 25.0604 40.0078C16.9287 40.0078 9.71751 34.8983 7.10922 27.3363V27.2852H1.33008V27.9494L3.73379 28.2049C5.21694 28.3581 5.52379 29.0224 5.93294 29.8399L6.03522 30.0443C9.41065 37.2998 16.9287 42.0005 25.0604 42.0005C33.1921 42.0005 40.6589 37.2998 44.1367 30.0443L44.2389 29.8399C44.6481 29.0224 44.9549 28.4092 46.4381 28.2049L48.8418 27.9494V27.2852H43.0626Z" fill="white"/>
<path d="M11.609 18.3438H10.2793V24.1686H11.609V18.3438Z" fill="white"/>
<path d="M7.16 24.1175V18.3438H5.88143V22.6868L1.63657 18.3438H0V24.1175H1.27857V19.7744L5.57457 24.1175H7.16Z" fill="white"/>
<path d="M36.2616 18.3438L32.6816 24.1686H34.2159L34.8296 23.1467H38.9722L39.5859 24.1686H41.1202L37.5402 18.3438H36.2616ZM38.3585 22.0226H35.4945L36.9265 19.6722L38.3585 22.0226Z" fill="white"/>
<path d="M29.0487 22.9407C28.9975 22.9407 28.8441 22.9407 28.793 22.9407H23.423V24.1158H28.8441C28.8952 24.1158 29.2021 24.1158 29.2532 24.1158C30.3784 24.0136 30.8387 23.145 30.8387 22.3275C30.8387 21.51 30.3272 20.6925 29.3044 20.5903C29.151 20.5903 28.9975 20.5903 28.8952 20.5903H25.3664C25.213 20.5903 25.1107 20.5903 24.9572 20.5392C24.7015 20.4881 24.5481 20.2837 24.5992 20.0282C24.5992 19.7728 24.7527 19.5684 25.0084 19.5173C25.1107 19.4662 25.2641 19.4662 25.3664 19.4662H30.4807V18.291H25.3152C25.1618 18.291 24.9572 18.291 24.8038 18.3421C23.9344 18.4443 23.2695 19.1596 23.2695 20.0282C23.2695 20.7436 23.7298 21.6122 24.7527 21.7144C24.9572 21.7144 25.1107 21.7655 25.3152 21.7144H28.7418C28.793 21.7144 28.9464 21.7144 28.9975 21.7144C29.3044 21.7655 29.509 22.0209 29.509 22.2764C29.509 22.6341 29.3044 22.8896 29.0487 22.9407Z" fill="white"/>
<path d="M19.6385 22.9423C19.5874 22.9423 19.4339 22.9423 19.3828 22.9423H14.0639V24.1175H19.4339C19.4851 24.1175 19.7919 24.1175 19.8431 24.1175C20.9682 24.0153 21.4797 23.1467 21.4797 22.3802C21.4797 21.6138 20.9682 20.7452 19.9454 20.643C19.7919 20.643 19.6385 20.643 19.5362 20.643H16.0074C15.8539 20.643 15.7517 20.643 15.5982 20.5919C15.3425 20.5408 15.1891 20.3365 15.2402 20.081C15.2402 19.8255 15.3937 19.6211 15.6494 19.57C15.7517 19.5189 15.9051 19.5189 16.0074 19.5189H21.1217V18.3438H15.9051C15.7517 18.3438 15.5471 18.3438 15.3937 18.3948C14.5242 18.497 13.8594 19.2124 13.8594 20.081C13.8594 20.7963 14.3197 21.6649 15.3425 21.7671C15.5471 21.7671 15.7005 21.8182 15.9051 21.7671H19.3317C19.3828 21.7671 19.5362 21.7671 19.5874 21.7671C19.8942 21.8182 20.0988 22.0737 20.0988 22.3292C20.1499 22.6357 19.8942 22.8912 19.6385 22.9423Z" fill="white"/>
<path d="M50.119 24.1175V18.3438H48.8404V22.6868L44.5956 18.3438H42.959V24.1175H44.2376V19.7744L48.5336 24.1175H50.119Z" fill="white"/>
<path d="M46.7951 38.4747C47.4088 38.4747 47.9202 38.9857 47.9202 39.5988C47.9202 40.212 47.4088 40.7229 46.7951 40.7229C46.1813 40.7229 45.6699 40.212 45.6699 39.5988C45.6699 39.2923 45.7722 39.0368 46.0279 38.7813C46.1813 38.5769 46.4882 38.4237 46.7951 38.4747ZM46.7951 40.4674C47.0508 40.4674 47.2553 40.3653 47.4088 40.212C47.5622 40.0587 47.6645 39.8032 47.6645 39.5988C47.6645 39.139 47.2553 38.7302 46.7951 38.7813C46.3348 38.7813 45.9256 39.1901 45.9256 39.6499C45.9256 40.0587 46.2836 40.4674 46.7951 40.4674ZM46.3348 40.1609V39.0368C46.4882 39.0368 46.5905 38.9857 46.7439 38.9857C46.9485 38.9857 47.2553 39.0368 47.2553 39.2923C47.2553 39.4456 47.1531 39.5477 46.9996 39.5477C47.1019 39.5988 47.1531 39.701 47.2042 39.8032C47.2042 39.9054 47.2553 40.0076 47.3065 40.0587H47.0508C46.9996 39.9565 46.9996 39.8543 46.9485 39.8032C46.8974 39.6499 46.7951 39.6499 46.5905 39.6499V40.1098L46.3348 40.1609ZM46.5905 39.4966C46.7951 39.4966 46.9996 39.4966 46.9996 39.3434C46.9996 39.2412 46.9485 39.1901 46.7439 39.1901C46.6928 39.1901 46.6416 39.1901 46.5905 39.1901V39.4966Z" fill="white"/>
</g>
<defs>
<clipPath id="clip0_8388_187">
<rect width="50.12" height="42" fill="white"/>
</clipPath>
</defs>
</svg>
