<svg width="102" height="24" viewBox="0 0 102 24" fill="none" xmlns="http://www.w3.org/2000/svg">
<g clip-path="url(#clip0_8388_210)">
<path d="M58.8383 21.2863C58.8383 21.4802 58.8908 21.5859 59.0134 21.5859C59.1009 21.5859 59.171 21.5507 59.2585 21.4978L90.8491 0.828194C91.4095 0.45815 91.9173 0.264317 92.6703 0.264317H99.6223C100.69 0.264317 101.408 0.986784 101.408 2.06167V15.4009C101.408 17.0044 101.058 17.9383 99.6223 18.8018L91.1993 23.8943C91.0942 23.9648 90.9892 24 90.9191 24C90.8141 24 90.7265 23.9295 90.7265 23.63V8.05286C90.7265 7.87665 90.674 7.7533 90.5514 7.7533C90.4638 7.7533 90.3938 7.78855 90.3062 7.84141L67.2087 22.9427C66.5608 23.3656 66.0355 23.489 65.4401 23.489H50.1176C49.0494 23.489 48.3314 22.7665 48.3314 21.6916V2.48458C48.3314 2.34361 48.2614 2.22026 48.1563 2.22026C48.0688 2.22026 47.9987 2.25551 47.9112 2.30837L32.6763 11.5242C32.5187 11.6123 32.4836 11.7004 32.4836 11.7709C32.4836 11.8414 32.5011 11.8943 32.6237 12L43.4983 22.9427C43.6384 23.0837 43.7435 23.2071 43.7435 23.3128C43.7435 23.4361 43.5858 23.5066 43.3932 23.5066H33.5518C32.7813 23.5066 32.1859 23.3833 31.7657 22.9604L25.1639 16.3172C25.0938 16.2467 25.0413 16.2115 24.9712 16.2115C24.9187 16.2115 24.8312 16.2467 24.7611 16.2819L13.7289 22.9604C13.0635 23.3656 12.6082 23.489 11.9428 23.489H1.78616C0.717967 23.489 0 22.7665 0 21.6916V8.59912C0 6.97797 0.350228 6.06167 1.78616 5.19824L10.2617 0.0704846C10.3492 0.0176211 10.4193 0 10.4893 0C10.6119 0 10.6819 0.140969 10.6819 0.422908V17.9383C10.6819 18.1145 10.7345 18.2026 10.8571 18.2026C10.9271 18.2026 11.0147 18.1498 11.1022 18.0969L39.7333 0.77533C40.4163 0.370044 40.8366 0.246696 41.6246 0.246696H57.0346C58.1028 0.246696 58.8208 0.969163 58.8208 2.04405L58.8383 21.2863Z" fill="white"/>
</g>
<defs>
<clipPath id="clip0_8388_210">
<rect width="101.408" height="24" fill="white"/>
</clipPath>
</defs>
</svg>
