<svg width="40" height="40" viewBox="0 0 40 40" fill="none" xmlns="http://www.w3.org/2000/svg">
<g clip-path="url(#clip0_8388_106)">
<path d="M20.4065 19.9009L21.2779 19.3669L32.4093 26.9846L20.4065 19.9009ZM19.7599 19.4793L18.9448 19.0014L19.8724 4.46875L19.7599 19.4793ZM18.7761 19.4231L15.0938 22.487L19.507 19.8728L18.7761 19.4231Z" fill="white"/>
<path d="M19.986 0.167969C9.02327 0.167969 0.140625 9.05061 0.140625 20.0134C0.140625 30.9761 9.02327 39.8588 19.986 39.8588C30.9488 39.8588 39.8314 30.9761 39.8314 20.0134C39.8314 9.05061 30.9488 0.167969 19.986 0.167969ZM19.986 38.7625C15.4604 38.7625 11.2158 37.2446 8.03943 34.4898C4.97548 31.7913 2.58616 27.4905 1.99586 22.9368C3.40134 31.6226 10.9066 38.2284 19.986 38.2284C30.0493 38.2284 38.2011 30.0766 38.2011 20.0134C38.2011 15.825 36.655 11.7491 34.2657 8.68519C36.655 10.5404 38.7351 15.7969 38.7351 20.0134C38.7633 30.3858 30.3585 38.7625 19.986 38.7625ZM18.2713 18.5798L19.8736 2.13564H20.0141L20.1828 19.4512L22.9375 17.7927L20.1828 2.13564C29.9649 2.21997 37.8637 10.2031 37.8637 19.9853C37.8637 23.1335 37.0486 26.085 35.615 28.6711L23.2186 18.2987L22.038 18.9733L35.5306 28.8398C35.5025 28.896 35.4744 28.9522 35.4182 29.0084L20.239 20.2664V23.3303L35.3058 29.149C32.1856 34.3493 26.4793 37.8349 19.986 37.8349C13.4927 37.8349 7.78644 34.3493 4.66628 29.1771L19.733 23.3303V20.2382L4.55384 28.9522C4.52573 28.896 4.49762 28.8398 4.4414 28.7836L17.8778 18.9452L16.6972 18.2706L4.32896 28.5868C2.92348 26.0288 2.1083 23.1054 2.1083 19.9571C2.1083 10.2312 9.89466 2.33241 19.5644 2.10753L17.1469 17.9333L18.2713 18.5798ZM19.986 1.23613C9.64168 1.23613 1.2369 9.64091 1.2369 19.9853C1.2369 24.2017 2.75482 28.1652 5.08792 31.6226C5.87499 33.1125 6.71828 34.012 7.87077 35.2207C3.40134 31.6508 0.50605 26.1413 0.50605 19.9853C0.50605 9.21927 9.22003 0.505284 19.986 0.505284C30.752 0.505284 39.6347 9.6128 39.2973 19.9853C39.0443 9.86579 30.1898 1.23613 19.986 1.23613Z" fill="white"/>
</g>
<defs>
<clipPath id="clip0_8388_106">
<rect width="40" height="40" fill="white"/>
</clipPath>
</defs>
</svg>
